<?xml version="1.0" encoding="utf-8"?>
<!-- Generator: Adobe Illustrator 19.1.0, SVG Export Plug-In . SVG Version: 6.00 Build 0)  -->
<svg version="1.1" id="Layer_1" xmlns="http://www.w3.org/2000/svg" xmlns:xlink="http://www.w3.org/1999/xlink" x="0px" y="0px"
	 width="432px" height="432px" viewBox="0 0 432 432" enable-background="new 0 0 432 432" xml:space="preserve">
<g>
	<path fill="#FFFFFF" d="M189.3,351c0-6.3,1.7-12.5,5.2-18.8c3.5-6.2,8-11.3,13.5-15.3c-3.7-1.9-7.3-4.2-10.8-6.8
		c-3.5-2.6-5.2-5.1-5.2-7.4c0-5.2,6-15.5,18.1-30.8c-9.3-16.9-13.9-33.9-13.9-51c0-8.7,1-16.9,3.1-24.6c2-7.7,5.2-14.7,9.3-21.1
		c4.2-6.4,9.8-11.4,17-15.1c7.1-3.7,15.4-5.6,24.8-5.6c14,0,24.5,3.8,31.6,11.3c6.6-7.5,17.8-11.3,33.4-11.3h5.7l-3.8,32.9
		c-9,0-15.5,2-19.5,6c3.8,6.8,5.7,17.1,5.7,31c0,8.1-1.2,15.8-3.6,23c-2.4,7.3-5.9,13.7-10.4,19.4c-4.5,5.6-10.3,10.1-17.3,13.4
		c-7,3.3-14.8,4.9-23.4,4.9c-1.6,0-3.7-0.2-6.1-0.5c-2.5-0.4-4.5-0.7-6.1-1.1l-2.5-0.4c-2.1,4.1-3.1,6.5-3.1,7.4
		c0,2.2,1.6,4,4.7,5.5c3.1,1.5,7.2,2.7,12.2,3.6c5,1,10.5,1.9,16.6,2.9c6,1,12.1,2.3,18.2,3.9c6.1,1.6,11.6,3.5,16.6,5.8
		c3,1.3,5.6,3,7.9,5l101-101L216,23.7L148.7,91h23.1v245.5h-27.5l71.8,71.8l25.6-25.6C206.8,380.6,189.3,370,189.3,351z"/>
	<polygon fill="#FFFFFF" points="122.1,117.6 23.7,216 122.1,314.4 	"/>
	<path fill="#FFFFFF" d="M249.3,250.3c7.5,0,11.2-10.5,11.2-31.6c0-21.6-3.5-32.5-10.5-32.5c-1.7,0-3.3,0.5-4.6,1.4
		c-1.3,0.9-2.4,2.3-3.1,4.2c-0.8,1.9-1.4,3.8-1.9,5.7c-0.5,2-0.9,4.4-1.1,7.4c-0.2,3-0.4,5.5-0.4,7.6c0,2.1-0.1,4.8-0.1,8
		C238.8,240.4,242.3,250.3,249.3,250.3z"/>
	<path fill="#FFFFFF" d="M272.4,341.6c0-2.2-0.6-4.2-1.8-5.9c-1.2-1.8-2.9-3.2-5.3-4.3c-2.3-1.1-4.6-2-6.9-2.7
		c-2.3-0.7-5-1.3-8.3-1.6c-3.3-0.4-5.9-0.6-7.8-0.8c-2-0.2-4.3-0.3-7.2-0.4h-3.3c-4.1,6.5-6.1,12.1-6.1,17c0,5.4,10.1,8,30.3,8
		c0.2,0,0.5,0,0.8,0C267.2,350.9,272.4,347.8,272.4,341.6z"/>
</g>
</svg>
