<?xml version="1.0" encoding="utf-8"?>
<!-- Generator: Adobe Illustrator 19.1.0, SVG Export Plug-In . SVG Version: 6.00 Build 0)  -->
<svg version="1.1" id="Layer_1" xmlns="http://www.w3.org/2000/svg" xmlns:xlink="http://www.w3.org/1999/xlink" x="0px" y="0px"
	 width="432px" height="432px" viewBox="0 0 432 432" enable-background="new 0 0 432 432" xml:space="preserve">
<g>
	<polygon fill="#FFFFFF" points="122.1,117.6 23.7,216 122.1,314.4 	"/>
	<path fill="#FFFFFF" d="M283.2,323.2v13.4h-46V91h46v79.5c3.7-4.8,8.2-8.7,13.3-11.7c5.1-3,10.6-4.4,16.3-4.4
		c10.5,0,19.2,4.3,26.3,13c7.1,8.6,10.6,18.6,10.6,29.9v77.3l58.6-58.6L216,23.7L148.7,91h75.8v34.1h-52.8V192h37.4v34.9h-37.4
		v109.6h-27.5l71.8,71.8l75.8-75.8C288.5,329.9,285.6,326.8,283.2,323.2z"/>
	<path fill="#FFFFFF" d="M301.2,303.7c1.2-1.5,2-3,2.2-4.6c0.2-1.6,0.3-3.6,0.3-6.1V201c0-7.8-2.5-11.7-7.6-11.7
		c-1.6,0-3.4,0.8-5.4,2.3c-2,1.5-3.3,2.8-4,3.7c-0.7,0.9-1.9,2.5-3.5,4.6v94.9l0.8,1.1c0.5,0.7,0.8,1.2,1,1.4
		c0.2,0.2,0.5,0.6,1.1,1.4c0.5,0.7,1,1.3,1.2,1.6c0.3,0.3,0.7,0.8,1.2,1.4c0.5,0.6,1,1.1,1.4,1.4c0.4,0.3,0.9,0.6,1.4,1.1
		c0.5,0.5,1.1,0.8,1.6,1c0.5,0.2,1,0.4,1.6,0.5c0.5,0.2,1.1,0.3,1.6,0.3C298.3,305.8,300,305.1,301.2,303.7z"/>
</g>
</svg>
