<?xml version="1.0" encoding="utf-8"?>
<!-- Generator: Adobe Illustrator 19.1.0, SVG Export Plug-In . SVG Version: 6.00 Build 0)  -->
<svg version="1.1" id="Layer_1" xmlns="http://www.w3.org/2000/svg" xmlns:xlink="http://www.w3.org/1999/xlink" x="0px" y="0px"
	 width="432px" height="432px" viewBox="0 0 432 432" enable-background="new 0 0 432 432" xml:space="preserve">
<path fill="#FFFFFF" d="M408.3,216L216,23.7L23.7,216L216,408.3l124.8-124.8h-28.3V257h-26.6v-30.4h26.6v-26.5h30.3v26.5h26.6v28.3
	L408.3,216z M263.7,336.5h-34.1l-6.3-17.2c-4.2,6.5-10.1,11.8-17.9,15.9c-7.7,4-15.7,6.1-23.9,6.1c-8.8,0-16.8-1.6-24.1-4.8
	c-7.2-3.2-13.2-7.5-17.9-12.8c-4.7-5.3-8.6-11.6-11.8-18.8c-3.2-7.2-5.5-14.5-6.8-22s-2-15.2-2-23.1v-86.5c0-58,24.1-87,72.4-87
	c10.2,0,19.2,1.3,27.2,4c8,2.7,14.6,6.4,20,11.1c5.4,4.7,9.8,10.5,13.2,17.5c3.5,6.9,6,14.4,7.5,22.5c1.5,8.1,2.3,17,2.3,26.7v14.5
	h-47.5v-17.2c0-4.3-0.1-8-0.3-11.3c-0.2-3.2-0.8-6.8-1.7-10.8c-0.9-4-2.1-7.2-3.7-9.8c-1.5-2.5-3.8-4.7-6.7-6.4
	c-2.9-1.7-6.4-2.6-10.4-2.6c-15.2,0-22.8,12.1-22.8,36.3v106c0,24.1,7.6,36.1,22.8,36.1c15.1,0,22.6-12.5,22.6-37.5v-19.6h-28.1
	v-35.6h77.7V336.5z"/>
</svg>
